<svg width="60" height="60" viewBox="0 0 60 60" fill="none" xmlns="http://www.w3.org/2000/svg">
<rect width="60" height="60" rx="12" fill="#EAEDFF"/>
<path d="M40.5 43.5V40.5C40.5 38.9087 39.8679 37.3826 38.7426 36.2574C37.6174 35.1321 36.0913 34.5 34.5 34.5H25.5C23.9087 34.5 22.3826 35.1321 21.2574 36.2574C20.1321 37.3826 19.5 38.9087 19.5 40.5V43.5" stroke="#002BFF" stroke-width="1.5" stroke-linecap="round" stroke-linejoin="round"/>
<path d="M30 28.5C33.3137 28.5 36 25.8137 36 22.5C36 19.1863 33.3137 16.5 30 16.5C26.6863 16.5 24 19.1863 24 22.5C24 25.8137 26.6863 28.5 30 28.5Z" stroke="#002BFF" stroke-width="1.5" stroke-linecap="round" stroke-linejoin="round"/>
</svg>
