<svg width="60" height="60" viewBox="0 0 60 60" fill="none" xmlns="http://www.w3.org/2000/svg">
<rect width="60" height="60" rx="12" fill="#FFF2F2"/>
<path d="M40.5 16.5H19.5C17.8431 16.5 16.5 17.8431 16.5 19.5V40.5C16.5 42.1569 17.8431 43.5 19.5 43.5H40.5C42.1569 43.5 43.5 42.1569 43.5 40.5V19.5C43.5 17.8431 42.1569 16.5 40.5 16.5Z" stroke="#FF1818" stroke-width="1.5" stroke-linecap="round" stroke-linejoin="round"/>
<path d="M25.5 25.5045C25.4992 25.2383 25.5693 24.9767 25.703 24.7465C25.8367 24.5163 26.0293 24.3259 26.2609 24.1947C26.4925 24.0636 26.7549 23.9964 27.0211 24.0001C27.2873 24.0039 27.5476 24.0784 27.7755 24.216L35.271 28.7115C35.4942 28.8445 35.6789 29.0332 35.8073 29.2591C35.9356 29.4849 36.003 29.7403 36.003 30C36.003 30.2598 35.9356 30.5151 35.8073 30.741C35.6789 30.9669 35.4942 31.1555 35.271 31.2885L27.7755 35.784C27.5475 35.9217 27.287 35.9962 27.0207 35.9999C26.7544 36.0036 26.4919 35.9363 26.2602 35.805C26.0286 35.6736 25.836 35.4829 25.7024 35.2526C25.5688 35.0222 25.4989 34.7604 25.5 34.494V25.5045Z" stroke="#FF1818" stroke-width="1.5" stroke-linecap="round" stroke-linejoin="round"/>
</svg>
