<svg width="60" height="60" viewBox="0 0 60 60" fill="none" xmlns="http://www.w3.org/2000/svg">
<rect width="60" height="60" rx="12" fill="#EFFFEF"/>
<path d="M30 43.5V22.5V43.5Z" fill="#00B109"/>
<path d="M30 43.5V22.5" stroke="#00B109" stroke-width="1.5" stroke-linecap="round" stroke-linejoin="round"/>
<path d="M36 30L39 33L45 27" stroke="#00B109" stroke-width="1.5" stroke-linecap="round" stroke-linejoin="round"/>
<path d="M45 21V18C45 17.6022 44.842 17.2206 44.5607 16.9393C44.2794 16.658 43.8978 16.5 43.5 16.5H36C34.4087 16.5 32.8826 17.1321 31.7574 18.2574C30.6321 19.3826 30 20.9087 30 22.5C30 20.9087 29.3679 19.3826 28.2426 18.2574C27.1174 17.1321 25.5913 16.5 24 16.5H16.5C16.1022 16.5 15.7206 16.658 15.4393 16.9393C15.158 17.2206 15 17.6022 15 18V37.5C15 37.8978 15.158 38.2794 15.4393 38.5607C15.7206 38.842 16.1022 39 16.5 39H25.5C26.6935 39 27.8381 39.4741 28.682 40.318C29.5259 41.1619 30 42.3065 30 43.5C30 42.3065 30.4741 41.1619 31.318 40.318C32.1619 39.4741 33.3065 39 34.5 39H43.5C43.8978 39 44.2794 38.842 44.5607 38.5607C44.842 38.2794 45 37.8978 45 37.5V35.55" stroke="#00B109" stroke-width="1.5" stroke-linecap="round" stroke-linejoin="round"/>
</svg>
